# xmcd
#
# Track frame offsets:
#	150
#	12613
#	25888
#	35623
#	45778
#	56650
#	68670
#	78565
#	90893
#	107065
#	119230
#	132143
#	147658
#	165900
#
# Disc length: 2360 seconds
#
# Revision: 1
# Processed by: cddbd v1.5.2PL0 Copyright (c) Steve Scherf et al.
# Submitted via: audiograbber 1.83.01
#
DISCID=b709360e
DTITLE=Richie Halpin - The Dawn Of The Millennium
DYEAR=1900
DGENRE=
TTITLE0=The Dawn Of The Millennium
TTITLE1=Mums And Dads Waltz
TTITLE2=Don't You Want To Be My Girl
TTITLE3=A House Without Love Is Not A Home
TTITLE4=The Deepening Snow
TTITLE5=My Breffni Country Queen
TTITLE6=One To Ten
TTITLE7=Lets Share A Love Together
TTITLE8=My Father Came From Roscommon
TTITLE9=Polka Set
TTITLE10=Little Pedro
TTITLE11=Mary Lou
TTITLE12=The Family Tree
TTITLE13=Closing Time
EXTD=
EXTT0=
EXTT1=
EXTT2=
EXTT3=
EXTT4=
EXTT5=
EXTT6=
EXTT7=
EXTT8=
EXTT9=
EXTT10=
EXTT11=
EXTT12=
EXTT13=
PLAYORDER=
